<?xml version="1.0" encoding="UTF-8" standalone="no"?>
<svg width="76px" height="76px" viewBox="0 0 76 76" version="1.1" xmlns="http://www.w3.org/2000/svg" xmlns:xlink="http://www.w3.org/1999/xlink" xmlns:sketch="http://www.bohemiancoding.com/sketch/ns">
    <!-- Generator: Sketch 3.0.4 (8053) - http://www.bohemiancoding.com/sketch -->
    <title>0</title>
    <desc>Created with Sketch.</desc>
    <defs></defs>
    <g id="Page-1" stroke="none" stroke-width="1" fill="none" fill-rule="evenodd" sketch:type="MSPage">
        <g id="0" sketch:type="MSLayerGroup">
            <g id="rect1313_66_" sketch:type="MSShapeGroup">
                <path d="M1,75.001 L1,1 L75.001,1 L75.001,75.001 L1,75.001 Z" id="Shape" fill="#E6E6E6"></path>
                <path d="M75.991,0 C75.996,0 76,0.004 76,0.009 L76,75.99 C76,75.996 75.996,76 75.991,76 L0.009,76 C0.004,76 0,75.996 0,75.99 L0,0.009 C0,0.004 0.004,0 0.009,0 L75.991,0 L75.991,0 Z M74,2 L2,2 L2,74 L74,74 L74,2 L74,2 Z" id="Shape" fill="#FFFFFF"></path>
            </g>
        </g>
    </g>
</svg>