<?xml version="1.0" encoding="UTF-8" standalone="no"?>
<svg width="76px" height="76px" viewBox="0 0 76 76" version="1.1" xmlns="http://www.w3.org/2000/svg" xmlns:xlink="http://www.w3.org/1999/xlink" xmlns:sketch="http://www.bohemiancoding.com/sketch/ns">
    <!-- Generator: Sketch 3.0.4 (8053) - http://www.bohemiancoding.com/sketch -->
    <title>0</title>
    <desc>Created with Sketch.</desc>
    <defs>
      <style type="text/css">@import url("http://fonts.googleapis.com/css?family=Montserrat:400,700");</style>
    </defs>
    <g id="Page-1" stroke="none" stroke-width="1" fill="none" fill-rule="evenodd" sketch:type="MSPage">
        <g id="0" sketch:type="MSLayerGroup" transform="translate(0.000000, -1.000000)">
            <g id="rect1313_66_">
                <path d="M1,76.001 L1,2 L75.001,2 L75.001,76.001 L1,76.001 Z" id="Shape" fill="#E6E6E6" sketch:type="MSShapeGroup"></path>
                <text id="3" sketch:type="MSTextLayer" font-family="Montserrat" font-size="64" font-weight="bold" line-spacing="70" fill="#E74C3C">
                    <tspan x="19" y="62">3</tspan>
                </text>
                <path d="M75.991,1 C75.996,1 76,1.004 76,1.009 L76,76.99 C76,76.996 75.996,77 75.991,77 L0.009,77 C0.004,77 0,76.996 0,76.99 L0,1.009 C0,1.004 0.004,1 0.009,1 L75.991,1 L75.991,1 Z M74,3 L2,3 L2,75 L74,75 L74,3 L74,3 Z" id="Shape" fill="#FFFFFF" sketch:type="MSShapeGroup"></path>
            </g>
        </g>
    </g>
</svg>
