<?xml version="1.0" encoding="UTF-8" standalone="no"?>
<svg width="76px" height="76px" viewBox="0 0 76 76" version="1.1" xmlns="http://www.w3.org/2000/svg" xmlns:xlink="http://www.w3.org/1999/xlink" xmlns:sketch="http://www.bohemiancoding.com/sketch/ns">
    <!-- Generator: Sketch 3.0.4 (8053) - http://www.bohemiancoding.com/sketch -->
    <title>0</title>
    <desc>Created with Sketch.</desc>
    <defs></defs>
    <g id="Page-1" stroke="none" stroke-width="1" fill="none" fill-rule="evenodd" sketch:type="MSPage">
        <g id="0" sketch:type="MSLayerGroup" transform="translate(0.000000, -1.000000)">
            <g id="rect1313_66_" sketch:type="MSShapeGroup">
                <path d="M1,76.001 L1,2 L75.001,2 L75.001,76.001 L1,76.001 Z" id="Shape" fill="#E6E6E6"></path>
                <path d="M61.6292969,21.8605385 C57.3496094,19.0961923 53.7074219,19.6465385 50.5324219,21.4726154 C47.7558594,19.0788462 45.1496094,19 45.1496094,19 L41.1902344,22.9990769 C33.8683594,19.4431154 24.8277344,20.7109615 18.7621094,26.8341538 C11.0792969,34.5878846 11.0792969,47.1622692 18.7621094,54.9144231 C26.4449219,62.6697308 38.9011719,62.6697308 46.5839844,54.9144231 C52.6542969,48.7912308 53.9089844,39.6655769 50.3902344,32.2792692 L54.3511719,28.2801923 C54.3511719,28.2801923 54.2964844,26.4005 52.8558594,24.1281538 C55.0480469,23.0653077 57.2183594,23.0952692 59.7902344,24.7589231 C60.5824219,25.2714231 61.6402344,25.0380385 62.1464844,24.2369615 C62.6527344,23.4374615 62.4277344,22.3746154 61.6292969,21.8605385 L61.6292969,21.8605385 Z M31.3027344,28.5766538 C30.9167969,28.6602308 21.8136719,30.6976154 20.5667969,39.1972308 C20.4292969,40.1339231 19.5605469,40.7867692 18.6277344,40.6448462 C18.2527344,40.5896538 17.9230469,40.4146154 17.6746094,40.1607308 C17.3058594,39.7885769 17.1089844,39.2508462 17.1917969,38.6878846 C18.7902344,27.7866154 30.1292969,25.3045385 30.6105469,25.2051923 C31.5339844,25.0143846 32.4339844,25.6136154 32.6277344,26.5424231 C32.8152344,27.4743846 32.2246094,28.3826923 31.3027344,28.5766538 L31.3027344,28.5766538 Z M37.1449219,27.4822692 C36.4871094,28.1477308 35.4152344,28.1461538 34.7574219,27.4822692 C34.0980469,26.8168077 34.0980469,25.7381923 34.7574219,25.0727308 C35.4152344,24.4072692 36.4871094,24.4088462 37.1449219,25.0727308 C37.8042969,25.7366154 37.8042969,26.8183846 37.1449219,27.4822692 L37.1449219,27.4822692 Z" id="bomb" fill="#2C3E50"></path>
                <path d="M75.991,1 C75.996,1 76,1.004 76,1.009 L76,76.99 C76,76.996 75.996,77 75.991,77 L0.009,77 C0.004,77 0,76.996 0,76.99 L0,1.009 C0,1.004 0.004,1 0.009,1 L75.991,1 L75.991,1 Z M74,3 L2,3 L2,75 L74,75 L74,3 L74,3 Z" id="Shape" fill="#FFFFFF"></path>
            </g>
        </g>
    </g>
</svg>