<?xml version="1.0" encoding="UTF-8" standalone="no"?>
<svg width="78px" height="78px" viewBox="0 0 78 78" version="1.1" xmlns="http://www.w3.org/2000/svg" xmlns:xlink="http://www.w3.org/1999/xlink" xmlns:sketch="http://www.bohemiancoding.com/sketch/ns">
    <!-- Generator: Sketch 3.0.4 (8053) - http://www.bohemiancoding.com/sketch -->
    <title>0</title>
    <desc>Created with Sketch.</desc>
    <defs></defs>
    <g id="Page-1" stroke="none" stroke-width="1" fill="none" fill-rule="evenodd" sketch:type="MSPage">
        <g id="0" sketch:type="MSLayerGroup" transform="translate(1.000000, 0.000000)">
            <g id="rect1313_66_" sketch:type="MSShapeGroup">
                <path d="M1,76.001 L1,2 L75.001,2 L75.001,76.001 L1,76.001 Z" id="Shape" fill="#E6E6E6"></path>
                <g id="Shape-+-Triangle-1" transform="translate(26.000000, 22.000000)">
                    <path d="M0,0.885245902 L0,14.1705604 L0,54.0267177 L2.08580757,54.0267177 L2.08580757,24.5945179 L29.201306,13.1486625 L0,0.885245902 Z" id="Shape" fill="#2C3E50"></path>
                    <polygon id="Triangle-1" stroke="#2C3E50" fill="#D0011B" transform="translate(15.500000, 13.278689) rotate(90.000000) translate(-15.500000, -13.278689) " points="15.5 -1.7704918 28.3428571 28.3278689 2.65714286 28.3278689 "></polygon>
                </g>
                <path d="M2.5,3.5 L73.5,74.5" id="Line" stroke="#2C3E50" stroke-width="5" stroke-linecap="square"></path>
                <path d="M73.5,3.5 L2.5,74.5" id="Line" stroke="#2C3E50" stroke-width="5" stroke-linecap="square"></path>
                <path d="M75.991,1 C75.996,1 76,1.004 76,1.009 L76,76.99 C76,76.996 75.996,77 75.991,77 L0.009,77 C0.004,77 0,76.996 0,76.99 L0,1.009 C0,1.004 0.004,1 0.009,1 L75.991,1 L75.991,1 Z M74,3 L2,3 L2,75 L74,75 L74,3 L74,3 Z" id="Shape" fill="#FFFFFF"></path>
            </g>
        </g>
    </g>
</svg>